<svg width="23" height="22" viewBox="0 0 23 22" fill="none" xmlns="http://www.w3.org/2000/svg">
<path d="M22.2141 17.6121L18.3288 13.8905L15.3404 12.7078C16.3354 11.3523 16.8686 9.73525 16.8666 8.0782C16.8666 3.62385 13.0835 0 8.43331 0C3.78316 0 0 3.62385 0 8.0782C0 12.5326 3.78316 16.1564 8.43331 16.1564C10.1783 16.1583 11.8804 15.6388 13.3025 14.6703L14.534 17.5252L18.4191 21.2471C18.6683 21.4858 18.9641 21.6751 19.2897 21.8043C19.6152 21.9335 19.9641 22 20.3165 22C20.6689 22 21.0179 21.9335 21.3434 21.8044C21.669 21.6752 21.9648 21.4859 22.214 21.2472C22.4632 21.0085 22.6608 20.7252 22.7957 20.4133C22.9306 20.1015 23 19.7672 23 19.4297C23 19.0921 22.9306 18.7579 22.7958 18.446C22.6609 18.1342 22.4633 17.8508 22.2141 17.6121ZM1.53333 8.0782C1.53333 4.43383 4.62874 1.46876 8.43331 1.46876C12.2379 1.46876 15.3333 4.43383 15.3333 8.0782C15.3333 11.7226 12.2379 14.6876 8.43331 14.6876C4.62874 14.6876 1.53333 11.7226 1.53333 8.0782ZM21.1298 20.2085C20.914 20.4148 20.6215 20.5307 20.3166 20.5307C20.0117 20.5307 19.7193 20.4148 19.5034 20.2085L15.8344 16.694L14.6894 14.0394L17.4608 15.1361L21.1299 18.6507C21.3452 18.8574 21.4661 19.1376 21.4661 19.4296C21.4661 19.7217 21.3452 20.0018 21.1298 20.2085Z" fill="black"/>
</svg>
